<svg xmlns="http://www.w3.org/2000/svg" viewBox="0 0 628.07 208.4"><defs><style>.cls-1{fill:#383536;}.cls-2{fill:#ec3237;}.cls-3{fill:#fefdfd;}</style></defs><g id="Camada_2" data-name="Camada 2"><g id="Camada_1-2" data-name="Camada 1"><path class="cls-1" d="M628.07,123.47c-.24.83-.85.89-1.6.88h-62c-1.68,0-1.59-.32-1.48,1.58a30.07,30.07,0,0,0,2,9.8c3,7.16,8.22,11.2,16,11.74a23.46,23.46,0,0,0,13.49-2.77,11.23,11.23,0,0,0,3.59-3.29,10,10,0,0,1,8.21-4.64c6.46-.13,12.92-.05,19.38-.09.81,0,.74.39.59.92-2.63,9.27-7.37,17.1-15.27,22.9-7.29,5.34-15.52,7.89-24.42,8.55a53.52,53.52,0,0,1-19.91-1.86c-12.45-3.81-20.84-12.06-25.78-23.9-3.89-9.31-4.76-19.13-4.51-29.09.2-7.81,1.3-15.48,4.33-22.74C546.94,76.66,558,68.14,574,66.09a57,57,0,0,1,24.86,2.07C611.67,72.29,620,81.05,624.4,93.62a64.71,64.71,0,0,1,3.23,14.93c.07.65-.14,1.38.44,1.93Zm-46.11-16c6,0,12,0,18,0,1,0,1.22-.28,1-1.18-.28-1.56-.42-3.16-.77-4.71-1.63-7.26-5.6-12.39-13.25-13.83-6.17-1.17-12.08-.56-17.16,3.59-4.7,3.85-6.35,9.12-6.85,14.92-.08,1,.23,1.22,1.18,1.21C570.11,107.5,576,107.52,582,107.52Z"/><path class="cls-2" d="M.08,152.72C.08,137.81.28,122.9,0,108A110.29,110.29,0,0,1,5.21,71.58c11.46-35.27,42-62.51,78.43-69.47,30.86-5.89,59.12.53,84.08,19.66C189,38.05,202.15,59.62,206.66,86c5.45,31.85-2.23,60.53-22.94,85.36-15.79,18.93-36.11,30.58-60.38,35.24A111.24,111.24,0,0,1,102,208.4q-50.12-.08-100.23,0c-1.93,0-1.66.24-1.66-1.72q0-27,0-53.93Zm170.6-18.78h0c0-8.62,0-17.24,0-25.86a62.46,62.46,0,0,0-2.22-17.19c-1.8-6.18-4.66-11.78-10.07-15.53A53.14,53.14,0,0,0,126,65.77c-8.61.23-16.68,2.73-24.4,6.59A28.87,28.87,0,0,0,86,91.69,57,57,0,0,0,84,106c-.06,20.06,0,40.12-.07,60.18,0,1,.27,1.23,1.23,1.22q11.77-.06,23.56,0c1.08,0,1.35-.28,1.34-1.36q0-23.64,0-47.3c0-5.27,0-10.54,0-15.81.09-7.85,3.92-13.19,11.23-15.42a19.67,19.67,0,0,1,16.51,2,13.56,13.56,0,0,1,6.31,8.11,19.42,19.42,0,0,1,.77,5.31q0,24.77,0,49.51c0,.7,0,1.39,0,2.09.08,7.71,5.07,12.71,12.79,12.79,3.93,0,7.86,0,11.78,0,1.06,0,1.26-.35,1.25-1.32Q170.65,150,170.68,133.94ZM40.47,95.84q0,25.92,0,51.84a35.3,35.3,0,0,0,.61,7.18c1.15,5.51,4,9.6,9.61,11.33a22.85,22.85,0,0,0,5.06.83,206.53,206.53,0,0,0,24.63.39c1,0,1.26-.36,1.26-1.34-.05-5.39,0-10.78,0-16.17,0-1.93,0-1.91-1.94-1.93-2.62,0-5.24.15-7.85-.15-3-.37-5-2-5.4-4.66a14.27,14.27,0,0,1-.1-2.45q0-25.86,0-51.71c0-2.74,0-2.74,2.78-2.81,6.39-.16,11.43-4.42,12.35-10.48a56.48,56.48,0,0,0,.19-6.24c0-.94-.2-1.25-1.2-1.24-4.29.06-8.58,0-12.87,0-1.06,0-1.28-.31-1.27-1.3,0-5.07,0-10.13,0-15.2A12.89,12.89,0,0,0,53.2,38.71c-3.75.19-7.52.08-11.28,0-1.19,0-1.48.32-1.47,1.49Q40.51,68,40.47,95.84Z"/><path class="cls-1" d="M310.06,134.22c0,10.62,0,21.24,0,31.87,0,1-.23,1.3-1.27,1.29q-11.9-.06-23.8,0c-.91,0-1.17-.21-1.17-1.14,0-19.45,0-38.9,0-58.35a57.65,57.65,0,0,1,2.81-18.7,27.21,27.21,0,0,1,12.37-15.4,56.2,56.2,0,0,1,29.05-8.08,54.42,54.42,0,0,1,28.68,8.51c5.73,3.56,9.12,8.88,11.19,15.15a56.71,56.71,0,0,1,2.66,17.86c0,19.7,0,39.39,0,59.08,0,.89-.27,1.08-1.11,1.07-4,0-8,0-12,0-7.61,0-12.69-5.12-12.7-12.74q0-25.2,0-50.38a19.74,19.74,0,0,0-1.61-8.72c-2.31-4.83-6.5-7.27-11.46-8.37-6.88-1.52-13.12-.08-18.1,5.15-2.86,3-3.57,6.91-3.61,10.91-.06,6.83,0,13.65,0,20.48Z"/><path class="cls-1" d="M468.11,134.34c0,10.58,0,21.16,0,31.74,0,1-.19,1.31-1.25,1.31-7.94,0-15.87,0-23.8,0-.75,0-1.19,0-1.18-1,.11-20.67-.19-41.34.18-62a49.26,49.26,0,0,1,2.67-15.14,27.25,27.25,0,0,1,12.36-15.41c9-5.23,18.72-8.2,29.18-8.08A54.33,54.33,0,0,1,515,74.28c5.85,3.65,9.22,9.13,11.25,15.54a58,58,0,0,1,2.52,17.65c0,19.61,0,39.22,0,58.83,0,.88-.26,1.09-1.1,1.08-4,0-8.1,0-12.15,0-7.46-.07-12.55-5.15-12.57-12.62q0-25,0-50a29.37,29.37,0,0,0-.35-5.13,13.88,13.88,0,0,0-6.94-10.16A19.6,19.6,0,0,0,479.1,87.6c-7.29,2.37-10.91,7.55-11,15.6-.07,10.38,0,20.76,0,31.14Z"/><path class="cls-1" d="M213.55,119.45A76.42,76.42,0,0,0,215.34,132a24.79,24.79,0,0,0,4.81,10.21c6.81,8,20.08,7.72,27.15-.43a26.46,26.46,0,0,0,5.9-13.13,61.77,61.77,0,0,0-.08-23.74,24.36,24.36,0,0,0-6-11.72c-5.12-5.53-11.34-6.79-18.47-4.9-6.89,1.82-10.85,6.46-13,12.94-.29.84-.54,1.69-.88,2.53-.16-2.92-.26-5.82-.51-8.72a100.66,100.66,0,0,0-4.55-22.53c-.31-1,0-1.35.76-1.78,6.48-3.52,13.51-4.82,20.77-5.14a54.13,54.13,0,0,1,19.26,2.33A38,38,0,0,1,273,87.14c5.26,10,7,20.63,6.8,31.74a65.32,65.32,0,0,1-4.91,25c-5.72,13.33-15.64,21.39-29.91,24.18-13.5,2.64-26.18.67-38-6.41a33.27,33.27,0,0,1-5.74-4.58c-.38-.37-.6-.63-.3-1.23C209.16,139.29,210.1,136.58,213.55,119.45Z"/><path class="cls-1" d="M376,103q0-31.43,0-62.87c0-1.18.29-1.5,1.48-1.48,4.05.08,8.1,0,12.15,0A12.43,12.43,0,0,1,402,49a17.13,17.13,0,0,1,.14,2.68q0,57.18,0,114.36c0,1.05-.21,1.36-1.32,1.35q-11.78-.09-23.56,0c-1.1,0-1.33-.3-1.33-1.36Q376,134.53,376,103Z"/><path class="cls-1" d="M408.88,117.58V69.41c0-1.75-.19-1.56,1.59-1.53,4.54.06,9.09-.31,13.61.16A12.52,12.52,0,0,1,435,79.78c0,.57,0,1.14,0,1.71q0,42.23,0,84.45c0,1.2-.32,1.46-1.48,1.45q-11.65-.09-23.31,0c-1.1,0-1.42-.25-1.42-1.4Q408.91,141.8,408.88,117.58Z"/><path class="cls-1" d="M421.86,59.29c-4,0-7.92,0-11.88,0-.83,0-1.13-.17-1.12-1.07q.06-9.24,0-18.49c0-.9.33-1.06,1.13-1.06,4.13,0,8.26,0,12.38,0A12.6,12.6,0,0,1,435,51.33c0,2.32,0,4.65,0,7,0,.84-.29,1-1.05,1C430,59.27,425.91,59.29,421.86,59.29Z"/><path class="cls-3" d="M170.68,133.94q0,16,0,32.11c0,1-.19,1.33-1.25,1.32-3.92-.07-7.85,0-11.78,0-7.72-.08-12.71-5.08-12.79-12.79,0-.7,0-1.39,0-2.09q0-24.75,0-49.51a19.42,19.42,0,0,0-.77-5.31,13.56,13.56,0,0,0-6.31-8.11,19.67,19.67,0,0,0-16.51-2c-7.31,2.23-11.14,7.57-11.23,15.42-.07,5.27,0,10.54,0,15.81q0,23.65,0,47.3c0,1.08-.26,1.36-1.34,1.36q-11.77-.08-23.56,0c-1,0-1.23-.25-1.23-1.22,0-20.06,0-40.12.07-60.18a57,57,0,0,1,2-14.27,28.87,28.87,0,0,1,15.67-19.33c7.72-3.86,15.79-6.36,24.4-6.59a53.14,53.14,0,0,1,32.35,9.59c5.41,3.75,8.27,9.35,10.07,15.53a62.46,62.46,0,0,1,2.22,17.19c.05,8.62,0,17.24,0,25.86Z"/><path class="cls-3" d="M40.47,95.84q0-27.82,0-55.64c0-1.17.28-1.51,1.47-1.49,3.76.08,7.53.19,11.28,0A12.89,12.89,0,0,1,66.33,51.78c-.06,5.07,0,10.13,0,15.2,0,1,.21,1.32,1.27,1.3,4.29-.06,8.58,0,12.87,0,1,0,1.25.3,1.2,1.24a56.48,56.48,0,0,1-.19,6.24c-.92,6.06-6,10.32-12.35,10.48-2.78.07-2.78.07-2.78,2.81q0,25.86,0,51.71a14.27,14.27,0,0,0,.1,2.45c.45,2.66,2.36,4.29,5.4,4.66,2.61.3,5.23.11,7.85.15,1.94,0,1.94,0,1.94,1.93,0,5.39,0,10.78,0,16.17,0,1-.21,1.29-1.26,1.34A206.53,206.53,0,0,1,55.76,167a22.85,22.85,0,0,1-5.06-.83c-5.63-1.73-8.46-5.82-9.61-11.33a35.3,35.3,0,0,1-.61-7.18Q40.47,121.76,40.47,95.84Z"/></g></g></svg>