<?xml version="1.0" encoding="utf-8"?>
<!-- Generator: Adobe Illustrator 25.2.1, SVG Export Plug-In . SVG Version: 6.00 Build 0)  -->
<svg version="1.1" id="Camada_1" xmlns="http://www.w3.org/2000/svg" xmlns:xlink="http://www.w3.org/1999/xlink" x="0px" y="0px"
	 viewBox="0 0 786.8 261.2" style="enable-background:new 0 0 786.8 261.2;" xml:space="preserve">
<style type="text/css">
	.st0{fill:#E61F22;}
	.st1{fill:#FFFFFF;}
</style>
<path d="M253.8,198.5c-0.9-0.8-1.8-1.6-2.6-2.5c8.3-14.3,13.9-30.2,16.3-47.2c0.7,13.8,3.3,23.5,7.9,29.1c1.9,2.5,5.2,4.6,9.8,6.3
	c4.7,1.7,9.4,1.9,14.3,0.5c4.8-1.4,9.2-4.9,12.9-10.6c3.7-5.6,5.8-14.7,6.1-27.2c0-11.3-1.8-19.7-5.4-25.3
	c-3.6-5.6-7.7-9.2-12.4-10.8c-4.7-1.6-9.4-1.6-14.1-0.2s-8.1,3.2-10.3,5.4c-3.6,4-6.2,9.1-7.6,15.2c0-0.2,0-0.4,0-0.6
	c0-14.4-2.3-28.2-6.6-41.2c5.7-3.4,12.2-5.6,19.4-6.5c12.8-1.7,24.4-0.7,34.7,3c11.8,4.7,20.6,12.8,26.2,24.4
	c5.3,10.3,8,22.3,8,36.1c0,10-1.1,18.6-3.3,25.8c-2.2,7.2-5,13.3-8.4,18.3c-7.5,10.3-17,16.7-28.6,19.2c-10.3,2.8-20.7,3-31.2,0.7
	C268.5,208.1,260.1,204.1,253.8,198.5L253.8,198.5z M464.4,209.7H448c-4.7,0-8.5-1.5-11.5-4.4c-3-3-4.4-6.8-4.4-11.5l0,0V130
	c0-7.5-2.3-13-6.8-16.4s-9.6-5.2-15.2-5.2s-10.6,1.7-15,5.2c-4.4,3.4-6.6,8.9-6.6,16.4v79.7h-32.9v-73.1c0-21.2,5.6-35.5,16.6-42.7
	c11.1-7.2,23.4-11.1,36.8-11.7c13.8,0,26.4,3.6,38,10.8c11.6,7.2,17.4,21.7,17.4,43.6V209.7z M471,48.4h16.9c4.4,0,8.1,1.5,11.2,4.4
	c3.1,3,4.7,6.6,4.7,11v145.8H471L471,48.4z M512.2,85h16.9c4.4,0,8.1,1.6,11.2,4.7c3.1,3.1,4.7,6.9,4.7,11.2v108.8h-32.8L512.2,85
	L512.2,85z M512.2,48.4h16.9c4.4,0,8.1,1.6,11.2,4.7c3.1,3.1,4.7,6.9,4.7,11.3v9.8h-32.8L512.2,48.4L512.2,48.4z M662.5,209.7h-16.4
	c-4.7,0-8.5-1.5-11.5-4.4c-3-3-4.4-6.8-4.4-11.5l0,0V130c0-7.5-2.3-13-6.8-16.4s-9.6-5.2-15.2-5.2c-5.6,0-10.6,1.7-15,5.2
	c-4.4,3.4-6.6,8.9-6.6,16.4v79.7h-32.8v-73.1c0-21.2,5.6-35.5,16.6-42.7c11.1-7.2,23.4-11.1,36.8-11.7c13.8,0,26.4,3.6,38,10.8
	c11.6,7.2,17.4,21.7,17.4,43.6L662.5,209.7L662.5,209.7z M761.6,171.3H785c-3.4,13.1-10,23.1-19.7,30c-9.7,7.2-21.9,10.8-36.6,10.8
	c-17.8,0-31.7-5.8-41.7-17.4c-10-11.2-15-27.3-15-48.3c0-20,4.8-35.7,14.5-46.9c10-11.6,23.9-17.4,41.7-17.4
	c18.8,0,33.3,5.6,43.6,16.9c10,11.6,15,27.6,15,48.3c0,1.2,0,2.4,0,3.3c0,1,0,1.6,0,1.9c0,1.6-0.2,2.6-0.5,3.3h-81.1
	c0.3,9.7,2.6,16.9,7,21.6c4,5,10.2,7.5,18.3,7.5c5.3,0,9.8-1.1,13.6-3.3c0.9-0.3,1.8-0.9,2.6-1.6c0.8-0.8,1.6-1.6,2.6-2.6
	c0.3-0.9,1.5-2.2,3.5-3.7C754.9,172.1,757.8,171.3,761.6,171.3L761.6,171.3z M705.3,134.7h47.8c-0.6-8.4-2.8-14.7-6.6-18.8
	c-4-4.4-9.8-6.6-17.3-6.6c-6.9,0-12.5,2.2-16.9,6.6C708,120.3,705.6,126.6,705.3,134.7z"/>
<path class="st0" d="M130.4,0C60.8,0,3.9,54.5,0.1,123.3c-0.2,1.9,0.1,131,0,137.9h136.2v-0.1C302.7,253.3,297.6,0.4,130.4,0z"/>
<path class="st1" d="M102.2,209.7c-10.3,0.6-21.5,0.5-33.5-0.5c-12-0.9-18-8.6-18-23V48.4h16.9c4.1,0,7.7,1.6,10.8,4.7
	c3.1,3.1,4.7,6.9,4.7,11.2v21.1h19.2V92c0,4.7-1.6,8.5-4.7,11.5c-3.1,3-6.9,4.4-11.2,4.4h-3.3v69.4c0,5.3,3.1,8,9.4,8h9.8
	L102.2,209.7L102.2,209.7L102.2,209.7z M213.8,209.7h-16.4c-4.7,0-8.5-1.5-11.5-4.4c-3-3-4.4-6.8-4.4-11.5l0,0V130
	c0-7.5-2.3-13-6.8-16.4s-9.6-5.2-15.2-5.2s-10.6,1.7-15,5.2c-4.4,3.4-6.6,8.9-6.6,16.4v79.7h-32.8v-73.1c0-21.2,5.6-35.5,16.6-42.7
	c11.1-7.2,23.4-11.1,36.8-11.7c13.8,0,26.4,3.6,38,10.8c11.6,7.2,17.4,21.7,17.4,43.6L213.8,209.7z"/>
</svg>
