<svg xmlns="http://www.w3.org/2000/svg" xmlns:xlink="http://www.w3.org/1999/xlink" id="Google_News_icon" viewBox="0 0 103.89 85"><defs><radialGradient id="radial-gradient" cx="0.225" cy="0.081" r="1.189" gradientTransform="translate(0.091) scale(0.818 1)" gradientUnits="objectBoundingBox"><stop offset="0" stop-color="#fff" stop-opacity="0.102"></stop><stop offset="1" stop-color="#fff" stop-opacity="0"></stop></radialGradient></defs><path id="Caminho_362" data-name="Caminho 362" d="M1401.289,57.659a2.649,2.649,0,0,1-2.65,2.631H1342.55a2.649,2.649,0,0,1-2.65-2.631V2.631A2.649,2.649,0,0,1,1342.55,0h56.091a2.649,2.649,0,0,1,2.65,2.631V57.659Z" transform="translate(-1318.651 0)" fill="#0c9d58"></path><path id="Caminho_363" data-name="Caminho 363" d="M3906.321,724.106,3885.3,721.4l21.021,5.64Z" transform="translate(-3823.683 -709.959)" fill="#004d40" opacity="0.2"></path><path id="Caminho_364" data-name="Caminho 364" d="M1363.834,167.7,1332,181.913l35.183-12.806v-.035A2.571,2.571,0,0,0,1363.834,167.7Z" transform="translate(-1310.876 -164.829)" fill="#004d40" opacity="0.2"></path><path id="Caminho_365" data-name="Caminho 365" d="M1398.641,0H1342.55a2.649,2.649,0,0,0-2.65,2.631v.59A2.649,2.649,0,0,1,1342.55.59h56.091a2.649,2.649,0,0,1,2.65,2.631v-.59A2.65,2.65,0,0,0,1398.641,0Z" transform="translate(-1318.651 0)" fill="#fff" opacity="0.2"></path><path id="Caminho_366" data-name="Caminho 366" d="M2192.13,569.933a2.569,2.569,0,0,0,1.681,3.2l51.951,13.972a2.57,2.57,0,0,0,3.058-1.935l12.238-45.674a2.569,2.569,0,0,0-1.681-3.2l-51.951-13.972a2.57,2.57,0,0,0-3.058,1.935Z" transform="translate(-2157.269 -513.964)" fill="#ea4335"></path><path id="Caminho_367" data-name="Caminho 367" d="M5806.4,2638.1l2.733,16.6-2.733,10.2Z" transform="translate(-5714.316 -2596.262)" fill="#3e2723" opacity="0.2"></path><path id="Caminho_368" data-name="Caminho 368" d="M3900.8,764.1l2.449.658L3904.768,775Z" transform="translate(-3838.937 -751.982)" fill="#3e2723" opacity="0.2"></path><path id="Caminho_369" data-name="Caminho 369" d="M2263.087,536.3l-51.951-13.972a2.57,2.57,0,0,0-3.058,1.935l-12.239,45.674c-.021.076-.025.154-.04.23l12.146-45.329A2.571,2.571,0,0,1,2211,522.9l51.951,13.972a2.544,2.544,0,0,1,1.721,2.975l.094-.347A2.571,2.571,0,0,0,2263.087,536.3Z" transform="translate(-2160.977 -513.964)" fill="#fff" opacity="0.2"></path><path id="Caminho_370" data-name="Caminho 370" d="M75.847,305.522a2.571,2.571,0,0,1-1.4,3.338l-54.82,19.952a2.569,2.569,0,0,1-3.215-1.66L.243,282.718a2.571,2.571,0,0,1,1.4-3.338l54.82-19.952a2.569,2.569,0,0,1,3.215,1.66Z" transform="translate(-0.071 -255.179)" fill="#ffc107"></path><path id="Caminho_371" data-name="Caminho 371" d="M.4,283.18a2.571,2.571,0,0,1,1.4-3.338l54.82-19.954a2.564,2.564,0,0,1,3.2,1.618l-.189-.517a2.57,2.57,0,0,0-3.215-1.66L1.586,279.282a2.569,2.569,0,0,0-1.4,3.338l16.173,44.434c0,.014.014.027.021.043Z" transform="translate(-0.018 -255.081)" fill="#fff" opacity="0.2"></path><path id="Caminho_372" data-name="Caminho 372" d="M824.679,1510.923a2.665,2.665,0,0,1-2.656,2.656H747.056a2.665,2.665,0,0,1-2.656-2.656v-56.666a2.665,2.665,0,0,1,2.656-2.656h74.966a2.665,2.665,0,0,1,2.656,2.656Z" transform="translate(-732.595 -1428.579)" fill="#4285f4"></path><path id="Caminho_373" data-name="Caminho 373" d="M3511.831,2499.7H3489.4v-5.9h22.431a1.179,1.179,0,0,1,1.18,1.18v3.542A1.181,1.181,0,0,1,3511.831,2499.7Zm0,22.429H3489.4v-5.9h22.431a1.18,1.18,0,0,1,1.18,1.18v3.541A1.18,1.18,0,0,1,3511.831,2522.132Zm3.541-11.215H3489.4v-5.9h25.972a1.18,1.18,0,0,1,1.18,1.18v3.541A1.18,1.18,0,0,1,3515.372,2510.917Z" transform="translate(-3434.061 -2454.251)" fill="#fff"></path><path id="Caminho_374" data-name="Caminho 374" d="M822.022,5157.656H747.056A2.665,2.665,0,0,1,744.4,5155v.59a2.664,2.664,0,0,0,2.656,2.656h74.966a2.664,2.664,0,0,0,2.656-2.656V5155A2.665,2.665,0,0,1,822.022,5157.656Z" transform="translate(-732.595 -5073.246)" fill="#1a237e" opacity="0.2"></path><path id="Caminho_375" data-name="Caminho 375" d="M747.056,1452.19h74.966a2.665,2.665,0,0,1,2.656,2.656v-.59a2.665,2.665,0,0,0-2.656-2.656H747.056a2.665,2.665,0,0,0-2.656,2.656v.59A2.665,2.665,0,0,1,747.056,1452.19Z" transform="translate(-732.595 -1428.579)" fill="#fff" opacity="0.2"></path><path id="Caminho_376" data-name="Caminho 376" d="M1344.668,2505.605v5.324h7.639c-.631,3.243-3.483,5.595-7.639,5.595a8.561,8.561,0,0,1,0-17.118,7.692,7.692,0,0,1,5.435,2.125v0l4.042-4.042a13.6,13.6,0,0,0-9.479-3.692,14.167,14.167,0,1,0,0,28.334c8.182,0,13.564-5.752,13.564-13.845a16.915,16.915,0,0,0-.224-2.684Z" transform="translate(-1309.4 -2454.251)" fill="#fff"></path><g id="Grupo_663" data-name="Grupo 663" transform="translate(21.249 43.265)" opacity="0.2"><path id="Caminho_377" data-name="Caminho 377" d="M2233.2,3573.9v.59h7.5q.083-.29.143-.59Z" transform="translate(-2219.033 -3560.486)" fill="#1a237e"></path><path id="Caminho_378" data-name="Caminho 378" d="M1354.067,2752.716a14.163,14.163,0,0,1-14.159-13.872c0,.1-.008.2-.008.295a14.166,14.166,0,0,0,14.167,14.167c8.182,0,13.564-5.752,13.564-13.845,0-.065-.008-.125-.008-.19C1367.447,2747.153,1362.114,2752.716,1354.067,2752.716Zm5.435-20.6a7.7,7.7,0,0,0-5.435-2.125,8.538,8.538,0,0,0-8.4,8.559c0,.1.011.2.014.3a8.527,8.527,0,0,1,8.383-8.264,7.691,7.691,0,0,1,5.435,2.125v0l4.338-4.337c-.1-.1-.214-.179-.319-.271l-4.017,4.019Z" transform="translate(-1339.9 -2728.1)" fill="#1a237e"></path></g><path id="Caminho_379" data-name="Caminho 379" d="M3513.011,2792.09v-.59a1.18,1.18,0,0,1-1.18,1.18H3489.4v.59h22.431A1.177,1.177,0,0,0,3513.011,2792.09Zm-1.18,23.021H3489.4v.59h22.431a1.18,1.18,0,0,0,1.18-1.18v-.59A1.18,1.18,0,0,1,3511.831,2815.111Zm3.541-11.216H3489.4v.59h25.972a1.179,1.179,0,0,0,1.18-1.18v-.59A1.179,1.179,0,0,1,3515.372,2803.9Z" transform="translate(-3434.061 -2747.229)" fill="#1a237e" opacity="0.2"></path><path id="Caminho_380" data-name="Caminho 380" d="M102.128,22.331l-19.47-5.237V2.631A2.649,2.649,0,0,0,80.008,0H23.917a2.649,2.649,0,0,0-2.65,2.631V17.037L1.586,24.2a2.569,2.569,0,0,0-1.4,3.338L11.823,59.5V82.344A2.665,2.665,0,0,0,14.48,85H89.446A2.665,2.665,0,0,0,92.1,82.344V69.23l11.709-43.7a2.571,2.571,0,0,0-1.683-3.2Z" transform="translate(-0.018 0)" fill="url(#radial-gradient)"></path></svg>